<svg viewBox="0 0 28 28" fill="none" xmlns="http://www.w3.org/2000/svg" id="Cart-5--Streamline-Solar" height="28" width="28">
  <desc>
    Cart 5 Streamline Icon: https://streamlinehq.com
  </desc>
  <path fill-rule="evenodd" clip-rule="evenodd" d="M17.108700000000002 2.7175633333333336c0.43225 -0.21611333333333332 0.9578333333333333 -0.040915 1.1739000000000002 0.39131166666666667l2.5680666666666667 5.136051666666667c1.5786166666666668 0.12126333333333335 2.5692333333333335 0.4309083333333334 3.2084500000000005 1.2215583333333335 1.0505833333333334 1.2996316666666667 0.6315166666666667 3.2554316666666665 -0.20673333333333335 7.1670316666666665l-0.4999166666666667 2.3333333333333335c-0.5681666666666667 2.651366666666667 -0.8522500000000001 3.97705 -1.8148666666666669 4.755216666666667 -0.9626166666666667 0.7781666666666668 -2.3182833333333335 0.7781666666666668 -5.029850000000001 0.7781666666666668H11.492284999999999c-2.7114966666666667 0 -4.067245 0 -5.029826666666667 -0.7781666666666668 -0.9625816666666667 -0.7781666666666668 -1.2466533333333334 -2.10385 -1.8147850000000003 -4.755216666666667l-0.5000100000000001 -2.3333333333333335c-0.8382033333333334 -3.9116 -1.2573050000000001 -5.867400000000001 -0.20666333333333334 -7.1670316666666665 0.6391583333333333 -0.7906383333333334 1.6297633333333335 -1.1002833333333335 3.208356666666667 -1.2215583333333335l2.5680199999999997 -5.136051666666667c0.21611333333333332 -0.43222666666666665 0.7417083333333334 -0.607425 1.173935 -0.39131166666666667 0.43222666666666665 0.216125 0.607425 0.7417083333333334 0.39131166666666667 1.173935L9.141871666666667 8.173001666666666c0.5637566666666667 -0.006148333333333334 1.1789050000000003 -0.006148333333333334 1.8504150000000001 -0.006148333333333334h6.0154966666666665c0.6715333333333334 0 1.2866000000000002 0 1.8503333333333336 0.006148333333333334l-2.1407166666666666 -4.281503333333333c-0.21618333333333334 -0.43222666666666665 -0.04095 -0.9578100000000002 0.3913 -1.173935ZM8.458333333333334 14.000233333333334c0 -0.4832333333333334 0.391755 -0.875 0.875 -0.875h9.333333333333334c0.4832333333333334 0 0.875 0.39176666666666665 0.875 0.875s-0.39176666666666665 0.875 -0.875 0.875H9.333333333333334c-0.48324500000000004 0 -0.875 -0.39176666666666665 -0.875 -0.875Zm3.2083333333333335 2.625c-0.48324500000000004 0 -0.875 0.39176666666666665 -0.875 0.875s0.391755 0.875 0.875 0.875h4.666666666666667c0.4832333333333334 0 0.875 -0.39176666666666665 0.875 -0.875s-0.39176666666666665 -0.875 -0.875 -0.875h-4.666666666666667Z" fill="#000000" stroke-width="1.1667"></path>
</svg>